<svg width="586" height="23" viewBox="0 0 586 23" fill="none" xmlns="http://www.w3.org/2000/svg">
<path d="M4.32976 19.3142C3.55785 19.3142 2.74371 19.1485 1.92876 18.9204V15.7459C2.44363 15.9329 3.08642 16.0367 3.66525 16.0367C4.60811 16.0367 5.27262 15.7873 5.61533 15.0408L5.85105 14.5428L0 4.48104H4.39372L7.69453 11.0988L10.3952 4.48104H14.7889L9.36626 15.684C8.01593 18.4844 6.36592 19.3142 4.32976 19.3142Z" fill="#00284D"/>
<path d="M22.2692 7.80026H20.1043V11.1196H22.2692C23.4695 11.1196 24.5411 10.7668 24.5411 9.45993C24.5411 8.15303 23.4695 7.80026 22.2692 7.80026ZM22.0765 4.48094C25.784 4.48094 28.613 5.64303 28.613 9.45993C28.613 13.2772 25.784 14.418 22.0765 14.4389H20.1043V19.0032H16.1394V4.48094H22.0765Z" fill="#00284D"/>
<path d="M33.7791 13.6095H37.6371L36.0941 9.4189C35.9653 9.06613 35.8366 8.71336 35.7083 7.94588C35.5796 8.71336 35.4509 9.06613 35.3221 9.4189L33.7791 13.6095ZM27.6707 19.0032L33.5647 4.48134H37.8515L43.7451 19.0032H39.6732L38.8156 16.7212H32.6002L31.743 19.0032H27.6707Z" fill="#00284D"/>
<path d="M58.5128 4.48074V19.003H54.5478V7.90384H51.3114C50.8399 13.8579 50.0898 19.1691 45.7817 19.1892C45.2242 19.1892 44.6027 19.1063 43.9382 18.8992V15.559C44.217 15.6418 44.5597 15.6836 44.9672 15.6418C47.3891 15.3932 47.346 8.87888 47.6892 4.48074H58.5128Z" fill="#00284D"/>
<path d="M65.307 15.6839H67.4718C68.6721 15.6839 69.7437 15.3311 69.7437 14.0242C69.7437 12.7173 68.6721 12.3645 67.4718 12.3645H65.307V15.6839ZM61.342 19.0032V4.48094H65.307V9.04521H67.2788C70.9867 9.06613 73.8156 10.2069 73.8156 14.0242C73.8156 17.8415 70.9867 19.0032 67.2788 19.0032H61.342Z" fill="#00284D"/>
<path d="M83.0751 4.16986C84.5968 4.16986 86.1185 4.4808 87.4257 5.08296V8.71322C86.5042 7.96625 85.1326 7.53062 83.7609 7.53062C81.382 7.53062 79.0245 8.79608 79.0245 11.9497C79.0245 14.7706 81.382 15.9327 83.7183 15.9327C85.2617 15.9327 86.676 15.4762 87.5331 14.6672V18.4013C86.2259 19.003 84.7468 19.314 83.1607 19.314C79.0454 19.314 74.9521 17.1358 74.9521 11.9497C74.9521 6.47271 79.0245 4.16986 83.0751 4.16986Z" fill="#00284D"/>
<path d="M89.7188 19.0032V4.48094H93.6837V9.97882H95.5702L98.978 4.48094H103.371L98.6566 11.5552L103.586 19.0032H99.1924L95.5485 13.4019H93.6837V19.0032H89.7188Z" fill="#00284D"/>
<path d="M114.388 19.0032V13.0701C114.388 12.2817 114.41 11.369 114.474 10.684L108.602 19.0032H104.851V4.48094H108.816V10.4145C108.816 11.2234 108.795 12.1365 108.73 12.8211L114.603 4.48094H118.353V19.0032H114.388Z" fill="#00284D"/>
<path d="M131.471 2.71791V0.104121C130.313 0.78874 129.156 0.975382 127.934 0.975382C126.713 0.975382 125.555 0.78874 124.398 0.104121V2.71791C125.32 3.31966 126.348 3.67243 127.934 3.67243C129.52 3.67243 130.549 3.31966 131.471 2.71791ZM130.72 19.0032V13.0701C130.72 12.2817 130.742 11.369 130.807 10.6844L124.934 19.0032H121.183V4.48134H125.148V10.4149C125.148 11.2238 125.127 12.1365 125.062 12.8211L130.935 4.48134H134.686V19.0032H130.72Z" fill="#00284D"/>
<path d="M151.51 19.0032V13.0701C151.51 12.2817 151.532 11.369 151.596 10.684L145.724 19.0032H141.973V4.48094H145.938V10.4145C145.938 11.2234 145.917 12.1365 145.852 12.8211L151.725 4.48094H155.475V19.0032H151.51Z" fill="#00284D"/>
<path d="M171.808 4.48094V19.0032H167.843V13.4639H162.27V19.0032H158.305V4.48094H162.27V10.0408H167.843V4.48094H171.808Z" fill="#00284D"/>
<path d="M184.624 14.9162C187.197 14.6258 187.839 13.0904 187.839 11.7421C187.839 10.3938 187.197 8.85842 184.624 8.568V14.9162ZM180.874 14.9162V8.568C178.194 8.81698 177.552 10.3729 177.552 11.7421C177.552 13.1113 178.194 14.6672 180.874 14.9162ZM180.874 19.8333V18.0489C176.437 17.8208 173.587 15.5385 173.587 11.7421C173.587 7.94572 176.437 5.66379 180.874 5.43572V3.65136H184.624V5.43572C188.997 5.70522 191.805 7.96664 191.805 11.7421C191.805 15.5176 188.997 17.779 184.624 18.0489V19.8333H180.874Z" fill="#00284D"/>
<path d="M200.87 7.69659C198.277 7.69659 196.906 9.41859 196.906 11.7424C196.906 14.0657 198.277 15.7873 200.87 15.7873C203.464 15.7873 204.835 14.0657 204.835 11.7424C204.835 9.41859 203.464 7.69659 200.87 7.69659ZM200.87 4.16971C206.229 4.16971 208.908 7.69659 208.908 11.7424C208.908 15.7873 206.229 19.3142 200.87 19.3142C195.513 19.3142 192.833 15.7873 192.833 11.7424C192.833 7.69659 195.513 4.16971 200.87 4.16971Z" fill="#00284D"/>
<path d="M217.117 7.80026H214.952V11.1196H217.117C218.317 11.1196 219.389 10.7668 219.389 9.45993C219.389 8.15303 218.317 7.80026 217.117 7.80026ZM216.924 4.48094C220.632 4.48094 223.461 5.64303 223.461 9.45993C223.461 13.2772 220.632 14.418 216.924 14.4389H214.952V19.0032H210.987V4.48094H216.924Z" fill="#00284D"/>
<path d="M241.98 4.48094V19.0032H238.015V11.2857L234.799 16.0571H232.528L229.313 11.2648V19.0032H225.347V4.48094H229.099L233.663 11.2857L238.229 4.48094H241.98Z" fill="#00284D"/>
<path d="M249.524 13.6095H253.381L251.838 9.4189C251.71 9.06613 251.581 8.71336 251.452 7.94588C251.324 8.71336 251.195 9.06613 251.067 9.4189L249.524 13.6095ZM243.415 19.0032L249.309 4.48134H253.596L259.49 19.0032H255.418L254.56 16.7212H248.345L247.487 19.0032H243.415Z" fill="#00284D"/>
<path d="M272.929 22.011V19.0026H260.926V4.48077H264.891V15.5799H270.464V4.48077H274.429V15.5799H276.358V22.011H272.929Z" fill="#00284D"/>
<path d="M287.91 19.0032V13.0701C287.91 12.2817 287.932 11.369 287.996 10.684L282.123 19.0032H278.372V4.48094H282.337V10.4145C282.337 11.2234 282.316 12.1365 282.252 12.8211L288.124 4.48094H291.875V19.0032H287.91Z" fill="#00284D"/>
<path d="M301.992 7.69659C299.399 7.69659 298.027 9.41859 298.027 11.7424C298.027 14.0657 299.399 15.7873 301.992 15.7873C304.585 15.7873 305.957 14.0657 305.957 11.7424C305.957 9.41859 304.585 7.69659 301.992 7.69659ZM301.992 4.16971C307.35 4.16971 310.029 7.69659 310.029 11.7424C310.029 15.7873 307.35 19.3142 301.992 19.3142C296.634 19.3142 293.955 15.7873 293.955 11.7424C293.955 7.69659 296.634 4.16971 301.992 4.16971Z" fill="#00284D"/>
<path d="M325.611 4.48094V19.0032H321.646V13.4639H316.073V19.0032H312.108V4.48094H316.073V10.0408H321.646V4.48094H325.611Z" fill="#00284D"/>
<path d="M341.943 4.48094V19.0032H337.978V13.4639H332.405V19.0032H328.44V4.48094H332.405V10.0408H337.978V4.48094H341.943Z" fill="#00284D"/>
<path d="M352.059 7.69659C349.466 7.69659 348.094 9.41859 348.094 11.7424C348.094 14.0657 349.466 15.7873 352.059 15.7873C354.652 15.7873 356.024 14.0657 356.024 11.7424C356.024 9.41859 354.652 7.69659 352.059 7.69659ZM352.059 4.16971C357.418 4.16971 360.096 7.69659 360.096 11.7424C360.096 15.7873 357.418 19.3142 352.059 19.3142C346.701 19.3142 344.022 15.7873 344.022 11.7424C344.022 7.69659 346.701 4.16971 352.059 4.16971Z" fill="#00284D"/>
<path d="M370.02 15.4551H361.876V12.5505H370.02V15.4551Z" fill="#00284D"/>
<path d="M378.679 7.80026H376.514V11.1196H378.679C379.879 11.1196 380.951 10.7668 380.951 9.45993C380.951 8.15303 379.879 7.80026 378.679 7.80026ZM378.487 4.48094C382.194 4.48094 385.024 5.64303 385.024 9.45993C385.024 13.2772 382.194 14.418 378.487 14.4389H376.514V19.0032H372.55V4.48094H378.487Z" fill="#00284D"/>
<path d="M390.189 13.6095H394.047L392.504 9.4189C392.375 9.06613 392.247 8.71336 392.118 7.94588C391.989 8.71336 391.861 9.06613 391.732 9.4189L390.189 13.6095ZM384.081 19.0032L389.975 4.48134H394.261L400.155 19.0032H396.083L395.226 16.7212H389.01L388.153 19.0032H384.081Z" fill="#00284D"/>
<path d="M408.257 4.16986C409.779 4.16986 411.301 4.4808 412.608 5.08296V8.71322C411.686 7.96625 410.315 7.53062 408.943 7.53062C406.564 7.53062 404.207 8.79608 404.207 11.9497C404.207 14.7706 406.564 15.9327 408.9 15.9327C410.444 15.9327 411.858 15.4762 412.715 14.6672V18.4013C411.408 19.003 409.929 19.314 408.343 19.314C404.228 19.314 400.134 17.1358 400.134 11.9497C400.134 6.47271 404.207 4.16986 408.257 4.16986Z" fill="#00284D"/>
<path d="M423.175 19.0032V14.066C421.953 14.4184 420.774 14.605 419.703 14.605C416.445 14.605 414.238 12.9868 414.238 9.58462V4.48094H418.203V9.37706C418.203 10.5597 419.295 11.1405 420.71 11.1405C421.482 11.1405 422.339 10.9748 423.175 10.6429V4.48094H427.14V19.0032H423.175Z" fill="#00284D"/>
<path d="M437.942 3.52682C436.935 3.52682 436.121 2.73842 436.121 1.76338C436.121 0.788343 436.935 -5.64012e-05 437.942 -5.64012e-05C438.95 -5.64012e-05 439.764 0.788343 439.764 1.76338C439.764 2.73842 438.95 3.52682 437.942 3.52682ZM433.227 3.52682C432.219 3.52682 431.405 2.73842 431.405 1.76338C431.405 0.788343 432.219 -5.64012e-05 433.227 -5.64012e-05C434.234 -5.64012e-05 435.049 0.788343 435.049 1.76338C435.049 2.73842 434.234 3.52682 433.227 3.52682ZM440.771 4.48095V7.80027H433.934V10.0203H440.128V13.3187H433.934V15.6839H440.9V19.0032H429.969V4.48095H440.771Z" fill="#00284D"/>
<path d="M454.489 4.48094V7.90404H450.266V19.0032H446.301V7.90404H442.057V4.48094H454.489Z" fill="#00284D"/>
<path d="M469.684 4.48094V19.0032H465.719V13.4639H460.146V19.0032H456.181V4.48094H460.146V10.0408H465.719V4.48094H469.684Z" fill="#00284D"/>
<path d="M485.952 4.48047H489.917V19.0027H485.952V4.48047ZM476.479 15.6834H478.643C479.843 15.6834 480.915 15.3305 480.915 14.0237C480.915 12.7168 479.843 12.3641 478.643 12.3641H476.479V15.6834ZM472.513 19.0027V4.48047H476.479V9.04472H478.45C482.158 9.06414 484.988 10.2064 484.988 14.0237C484.988 17.841 482.158 19.0027 478.45 19.0027H472.513Z" fill="#00284D"/>
<path d="M503.033 2.71791V0.104121C501.876 0.78874 500.718 0.975382 499.497 0.975382C498.275 0.975382 497.118 0.78874 495.96 0.104121V2.71791C496.882 3.31966 497.911 3.67243 499.497 3.67243C501.083 3.67243 502.112 3.31966 503.033 2.71791ZM502.283 19.0032V13.0701C502.283 12.2817 502.305 11.369 502.369 10.6844L496.497 19.0032H492.746V4.48134H496.711V10.4149C496.711 11.2238 496.69 12.1365 496.625 12.8211L502.498 4.48134H506.248V19.0032H502.283Z" fill="#00284D"/>
<path d="M525.538 22.011V19.0026H513.535V4.48077H517.5V15.5799H523.073V4.48077H527.038V15.5799H528.967V22.011H525.538Z" fill="#00284D"/>
<path d="M541.785 4.48094V7.80026H534.947V10.0203H541.142V13.3187H534.947V15.6839H541.913V19.0032H530.982V4.48094H541.785Z" fill="#00284D"/>
<path d="M557.709 4.48094V19.0032H553.744V13.4639H548.171V19.0032H544.206V4.48094H548.171V10.0408H553.744V4.48094H557.709Z" fill="#00284D"/>
<path d="M571.834 4.48094V7.90404H567.611V19.0032H563.646V7.90404H559.402V4.48094H571.834Z" fill="#00284D"/>
<path d="M579.656 7.80026H577.491V11.1196H579.656C580.856 11.1196 581.928 10.7668 581.928 9.45993C581.928 8.15303 580.856 7.80026 579.656 7.80026ZM579.463 4.48094C583.171 4.48094 586 5.64303 586 9.45993C586 13.2772 583.171 14.418 579.463 14.4389H577.491V19.0032H573.526V4.48094H579.463Z" fill="#00284D"/>
</svg>
