<svg width="75" height="44" viewBox="0 0 75 44" fill="none" xmlns="http://www.w3.org/2000/svg">
<path d="M28.4104 20.4182L29.284 4.45785C24.0127 3.94858 18.2815 3.07933 12.2057 1.67887C9.94779 1.15843 7.77324 0.594814 5.68427 4.53913e-05C5.30714 2.89616 5.03869 6.0138 4.9417 9.3303C4.90444 10.6041 4.89424 11.8471 4.90723 13.0573V26.746L25.4632 27.6113L28.4104 20.4182Z" fill="#00284D"/>
<path d="M26.4086 25.4545V17.7062L26.9708 5.58718C19.9806 5.9262 12.4405 5.50072 4.55411 3.8418C3.82457 3.68834 3.10353 3.52674 2.3911 3.35753C2.39037 6.8275 2.3896 10.2975 2.38892 13.7674L2.71175 31.7822L24.5361 29.7255L26.4086 25.4545Z" fill="#FFA62E"/>
<path d="M24.7579 32.7262V13.9612L17.8856 6.98774H0V38.2392L2.63126 40.8808C2.83692 41.0873 3.17125 41.0873 3.37695 40.8808L5.52948 38.7198C5.79353 38.4547 6.22277 38.4547 6.48686 38.7198L8.63939 40.8808C8.84505 41.0873 9.17942 41.0873 9.38508 40.8808L11.5377 38.7198C11.8017 38.4547 12.2309 38.4547 12.495 38.7198L14.6476 40.8808C14.8532 41.0873 15.1875 41.0873 15.3932 40.8808C16.8448 39.4236 19.2042 39.4236 20.6557 40.8808L21.0285 41.2551L24.0326 38.2392H21.0285H19.2449C22.2896 38.2392 24.7579 35.7709 24.7579 32.7262Z" fill="#C4D0CD"/>
<path d="M19.7587 17.7856H4.87291C4.57051 17.7856 4.32544 17.5405 4.32544 17.2381V16.6221C4.32544 16.3197 4.57051 16.0746 4.87291 16.0746H19.7587C20.0611 16.0746 20.3063 16.3197 20.3063 16.6221V17.2381C20.3063 17.5405 20.0611 17.7856 19.7587 17.7856Z" fill="#20495C"/>
<path d="M19.7587 23.0063H4.87291C4.57051 23.0063 4.32544 22.7612 4.32544 22.4588V21.8428C4.32544 21.5404 4.57051 21.2953 4.87291 21.2953H19.7587C20.0611 21.2953 20.3063 21.5404 20.3063 21.8428V22.4588C20.3063 22.7612 20.0611 23.0063 19.7587 23.0063Z" fill="#20495C"/>
<path d="M19.7866 33.4473H11.9804C11.678 33.4473 11.4329 33.2021 11.4329 32.8998V32.2837C11.4329 31.9813 11.678 31.7362 11.9804 31.7362H19.7866C20.089 31.7362 20.3341 31.9813 20.3341 32.2837V32.8998C20.3341 33.2021 20.089 33.4473 19.7866 33.4473Z" fill="#20495C"/>
<path d="M19.8222 28.2268H12.016C11.7137 28.2268 11.4685 27.9817 11.4685 27.6793V27.0632C11.4685 26.7608 11.7137 26.5157 12.016 26.5157H19.8222C20.1246 26.5157 20.3697 26.7608 20.3697 27.0632V27.6793C20.3697 27.9817 20.1246 28.2268 19.8222 28.2268Z" fill="#20495C"/>
<path d="M24.7775 13.9575H18.0916L18.0916 7.07913L24.7775 13.9575Z" fill="#80A8AF"/>
<path d="M18.2124 43.595C17.4082 43.595 16.4848 43.4476 15.4679 43.1571C15.2942 43.1074 15.1745 42.9487 15.1745 42.768V39.613C15.1745 39.4829 15.237 39.3608 15.3425 39.2848C15.4123 39.2345 15.4952 39.2084 15.5791 39.2084C15.622 39.2084 15.6652 39.2153 15.707 39.2292C16.2832 39.4212 16.9699 39.5314 17.5913 39.5314C18.6261 39.5314 19.3749 39.3079 19.9096 38.1956L20.1093 37.7796L12.2448 25.6732C12.164 25.5488 12.1577 25.3901 12.2285 25.2597C12.2992 25.1294 12.4357 25.0482 12.5841 25.0482C13.9116 25.0482 15.2275 25.3874 16.3897 26.0291C17.5518 26.6709 18.5398 27.6039 19.2468 28.7275L22.2753 33.5398L28.196 20.2752C29.2758 17.8557 31.6856 16.2924 34.3351 16.2924C34.4736 16.2924 34.6025 16.3632 34.6767 16.4801C34.7509 16.5969 34.7602 16.7436 34.7014 16.869L24.2924 39.0397C22.8098 42.1901 20.9347 43.595 18.2124 43.595Z" fill="#FF9300"/>
<path d="M34.3354 17.5064H34.3356H34.3354ZM34.3354 15.888C31.5265 15.888 28.9717 17.5454 27.8268 20.1104L22.2148 32.6837L19.5896 28.5122C18.8461 27.3309 17.8074 26.3498 16.5855 25.6752C15.3637 25.0004 13.9801 24.6438 12.5843 24.6438C12.2876 24.6438 12.0147 24.8061 11.8732 25.0669C11.7316 25.3277 11.7441 25.645 11.9058 25.8938L19.6464 37.8097L19.5451 38.021C19.098 38.9506 18.5136 39.127 17.5916 39.127C17.0119 39.127 16.3718 39.0244 15.8352 38.8455C15.7517 38.8177 15.6653 38.804 15.5794 38.804C15.4117 38.804 15.2457 38.8561 15.1062 38.9568C14.8951 39.1089 14.7702 39.3531 14.7702 39.6132V42.7682C14.7702 43.1295 15.0096 43.447 15.357 43.5463C16.41 43.8472 17.3708 43.9998 18.2127 43.9998C19.59 43.9998 20.7511 43.6603 21.7622 42.9621C22.8905 42.183 23.8379 40.9564 24.6586 39.2125L35.0679 17.0411C35.1856 16.7904 35.167 16.497 35.0185 16.2633C34.87 16.0296 34.6124 15.888 34.3354 15.888ZM34.3354 16.6972L23.9264 38.8679C22.3365 42.2465 20.4236 43.1905 18.2127 43.1905C17.368 43.1905 16.4488 43.0167 15.5794 42.7682V39.6132C16.1756 39.8119 16.896 39.9362 17.5916 39.9362C18.7343 39.9362 19.6535 39.6629 20.2746 38.3711L20.5727 37.75L12.5843 25.453C15.1509 25.453 17.5377 26.771 18.9047 28.9432L22.3365 34.3963L28.5657 20.4403C29.5819 18.1635 31.8421 16.6972 34.3354 16.6972Z" fill="white"/>
<path d="M42.0255 38.1233V31.058C42.0255 30.4317 42.0451 29.7467 42.0843 29.1791L35.7039 38.1233H32.9443V24.4232H32.9444C34.5657 24.4232 35.8801 25.7376 35.8801 27.359V31.4886C35.8801 32.1148 35.8605 32.7998 35.8214 33.3674L42.2017 24.4232H44.9613V38.1233H42.0255Z" fill="#00284D"/>
<path d="M53.2004 27.0069H50.8323V31.0387H53.2004C54.7074 31.0387 55.9795 30.6276 55.9795 29.0228C55.9795 27.3983 54.7074 27.0069 53.2004 27.0069ZM53.0634 24.4234C56.371 24.4234 58.974 25.4803 58.974 29.0228C58.974 32.5652 56.371 33.6221 53.0634 33.6221H50.8323V35.1878C50.8323 36.8092 49.5179 38.1235 47.8965 38.1235V24.4234H53.0634Z" fill="#00284D"/>
<path d="M72.0478 38.5145V38.123H60.9507V24.4229C62.5721 24.4229 63.8865 25.7373 63.8865 27.3586V35.4808H69.9536V24.4229H72.8893V35.4808H74.6312V41.0979H74.6312C73.2044 41.0979 72.0478 39.9413 72.0478 38.5145Z" fill="#00284D"/>
<path d="M6.50002 28.4928H6.59915C7.38101 28.4928 7.86912 28.4598 8.0637 28.3937C8.26195 28.3276 8.41518 28.2139 8.52349 28.0523C8.63172 27.8909 8.6859 27.689 8.6859 27.4467C8.6859 27.1714 8.61618 26.9503 8.47668 26.7832C8.33717 26.6162 8.12981 26.5125 7.85452 26.4721C7.78844 26.4648 7.65715 26.4584 7.46084 26.4529C7.26444 26.4474 6.99918 26.4446 6.66518 26.4446H6.50002V28.4928ZM8.6859 30.4419V31.6588H6.50002V33.1509H4.87024V31.6588H4.3252V30.4419H4.87024V29.7813H4.3252V28.4928H4.87024V25.0791H7.19376C8.06006 25.0791 8.6859 25.1526 9.07132 25.2993C9.46035 25.4425 9.7742 25.6994 10.0128 26.0702C10.2477 26.4373 10.3652 26.8612 10.3652 27.3421C10.3652 27.7349 10.3166 28.068 10.2193 28.3414C10.122 28.6149 9.98893 28.8416 9.82016 29.0214C9.65128 29.2013 9.45125 29.3426 9.22002 29.4453C8.98874 29.5482 8.73728 29.6243 8.46567 29.6738C8.19398 29.7234 7.91043 29.7537 7.61503 29.7647C7.31947 29.7758 7.02119 29.7813 6.72025 29.7813H6.50002V30.4419H8.6859Z" fill="#20495C"/>
</svg>
