<svg width="38" height="38" viewBox="0 0 38 38" fill="none" xmlns="http://www.w3.org/2000/svg">
<path d="M12.39 19.99H14.94V10.21C15.86 10.05 16.81 9.93 17.79 9.85C18.77 9.75 19.8 9.7 20.88 9.7C22.02 9.7 23.11 9.79 24.15 9.97C25.19 10.15 26.1 10.48 26.88 10.96C27.66 11.44 28.28 12.1 28.74 12.94C29.22 13.78 29.46 14.86 29.46 16.18C29.46 17.38 29.22 18.41 28.74 19.27C28.28 20.11 27.66 20.79 26.88 21.31C26.12 21.83 25.24 22.21 24.24 22.45C23.26 22.69 22.26 22.81 21.24 22.81H19.05V24.55H24.27V27.37H19.05V31H14.94V27.37H12.39V24.55H14.94V22.81H12.39V19.99ZM19.05 19.81H20.7C21.3 19.81 21.87 19.75 22.41 19.63C22.95 19.51 23.42 19.31 23.82 19.03C24.24 18.75 24.56 18.4 24.78 17.98C25.02 17.54 25.14 17 25.14 16.36C25.14 15.18 24.77 14.36 24.03 13.9C23.29 13.44 22.35 13.21 21.21 13.21C20.79 13.21 20.38 13.22 19.98 13.24C19.6 13.26 19.29 13.29 19.05 13.33V19.81Z" fill="#00284D"/>
<circle cx="19" cy="19" r="18" stroke="#00284D" stroke-width="2"/>
</svg>
